<svg width="33" height="23" viewBox="0 0 33 23" fill="none" xmlns="http://www.w3.org/2000/svg">
<path d="M16.4766 10.3379L27.1016 1.04102C27.8359 0.398438 29.0234 0.398438 29.75 1.04102L31.5156 2.58594C32.25 3.22852 32.25 4.26758 31.5156 4.90332L23.9922 11.5L31.5234 18.0898C32.2578 18.7324 32.2578 19.7715 31.5234 20.4072L29.7578 21.959C29.0234 22.6016 27.8359 22.6016 27.1094 21.959L16.4844 12.6621C15.7422 12.0195 15.7422 10.9805 16.4766 10.3379ZM1.47657 12.6621L12.1016 21.959C12.8359 22.6016 14.0234 22.6016 14.75 21.959L16.5156 20.4141C17.25 19.7715 17.25 18.7324 16.5156 18.0967L8.99219 11.5L16.5234 4.91016C17.2578 4.26758 17.2578 3.22852 16.5234 2.59277L14.7578 1.04102C14.0234 0.398438 12.8359 0.398438 12.1094 1.04102L1.48438 10.3379C0.742191 10.9805 0.742191 12.0195 1.47657 12.6621Z" fill="#FD8061"/>
</svg>
