<svg width="50" height="55" viewBox="0 0 50 55" fill="none" xmlns="http://www.w3.org/2000/svg">
<path d="M40.7143 8.5H9.28571C6.91964 8.5 5 10.3237 5 12.5714V42.4286C5 44.6763 6.91964 46.5 9.28571 46.5H40.7143C43.0804 46.5 45 44.6763 45 42.4286V12.5714C45 10.3237 43.0804 8.5 40.7143 8.5ZM29.7589 41.046C29.0089 41.1732 28.7321 40.7321 28.7321 40.3674C28.7321 39.9094 28.75 37.5683 28.75 35.6768C28.75 34.3536 28.2857 33.5138 27.7411 33.0728C31.0446 32.725 34.5268 32.2924 34.5268 26.8723C34.5268 25.3286 33.9464 24.5567 33 23.5643C33.1518 23.1996 33.6607 21.6982 32.8482 19.7473C31.6071 19.3826 28.7679 21.2656 28.7679 21.2656C27.5893 20.9518 26.3125 20.7906 25.0536 20.7906C23.7946 20.7906 22.5179 20.9518 21.3393 21.2656C21.3393 21.2656 18.5 19.3826 17.2589 19.7473C16.4464 21.6897 16.9464 23.1911 17.1071 23.5643C16.1607 24.5567 15.7143 25.3286 15.7143 26.8723C15.7143 32.267 19.0446 32.725 22.3482 33.0728C21.9196 33.4375 21.5357 34.0652 21.4018 34.9643C20.5536 35.329 18.3839 35.9567 17.0893 33.7853C16.2768 32.4451 14.8125 32.3348 14.8125 32.3348C13.3661 32.3179 14.7143 33.2 14.7143 33.2C15.6786 33.6241 16.3571 35.2527 16.3571 35.2527C17.2232 37.7719 21.3661 36.9237 21.3661 36.9237C21.3661 38.1027 21.3839 40.0196 21.3839 40.3674C21.3839 40.7321 21.1161 41.1732 20.3571 41.046C14.4643 39.1714 10.3393 33.8446 10.3393 27.6187C10.3393 19.8321 16.6071 13.9201 24.8036 13.9201C33 13.9201 39.6429 19.8321 39.6429 27.6187C39.6518 33.8446 35.6518 39.1799 29.7589 41.046ZM21 35.8634C20.8304 35.8973 20.6696 35.8295 20.6518 35.7192C20.6339 35.592 20.75 35.4817 20.9196 35.4478C21.0893 35.4308 21.25 35.4987 21.2679 35.6089C21.2946 35.7192 21.1786 35.8295 21 35.8634ZM20.1518 35.7871C20.1518 35.8973 20.0179 35.9906 19.8393 35.9906C19.6429 36.0076 19.5089 35.9143 19.5089 35.7871C19.5089 35.6768 19.6429 35.5835 19.8214 35.5835C19.9911 35.5665 20.1518 35.6598 20.1518 35.7871ZM18.9286 35.6938C18.8929 35.804 18.7143 35.8549 18.5625 35.804C18.3929 35.7701 18.2768 35.6429 18.3125 35.5326C18.3482 35.4223 18.5268 35.3714 18.6786 35.4054C18.8571 35.4562 18.9732 35.5835 18.9286 35.6938ZM17.8304 35.2357C17.75 35.329 17.5804 35.3121 17.4464 35.1848C17.3125 35.0746 17.2768 34.9134 17.3661 34.8371C17.4464 34.7437 17.6161 34.7607 17.75 34.8879C17.8661 34.9982 17.9107 35.1679 17.8304 35.2357ZM17.0179 34.4638C16.9375 34.5147 16.7857 34.4638 16.6875 34.3366C16.5893 34.2094 16.5893 34.0652 16.6875 34.0058C16.7857 33.9295 16.9375 33.9888 17.0179 34.1161C17.1161 34.2433 17.1161 34.396 17.0179 34.4638ZM16.4375 33.6411C16.3571 33.7174 16.2232 33.675 16.125 33.5902C16.0268 33.4799 16.0089 33.3527 16.0893 33.2933C16.1696 33.217 16.3036 33.2594 16.4018 33.3442C16.5 33.4545 16.5179 33.5817 16.4375 33.6411ZM15.8393 33.0134C15.8036 33.0897 15.6875 33.1067 15.5893 33.0473C15.4732 32.9964 15.4196 32.9031 15.4554 32.8268C15.4911 32.7759 15.5893 32.7504 15.7054 32.7929C15.8214 32.8522 15.875 32.9455 15.8393 33.0134Z" fill="#413C69"/>
</svg>
