<svg width="30" height="31" viewBox="0 0 30 31" fill="none" xmlns="http://www.w3.org/2000/svg">
<path id="icon_fb" d="M26.7857 0.1875H3.21429C2.3618 0.1875 1.54424 0.533202 0.941442 1.14856C0.338647 1.76391 0 2.59851 0 3.46875L0 27.5312C0 28.4015 0.338647 29.2361 0.941442 29.8514C1.54424 30.4668 2.3618 30.8125 3.21429 30.8125H12.4051V20.4007H8.18638V15.5H12.4051V11.7648C12.4051 7.51631 14.8828 5.16953 18.6777 5.16953C20.4951 5.16953 22.3955 5.50039 22.3955 5.50039V9.67031H20.3016C18.2384 9.67031 17.5949 10.9773 17.5949 12.3179V15.5H22.2007L21.4641 20.4007H17.5949V30.8125H26.7857C27.6382 30.8125 28.4558 30.4668 29.0586 29.8514C29.6614 29.2361 30 28.4015 30 27.5312V3.46875C30 2.59851 29.6614 1.76391 29.0586 1.14856C28.4558 0.533202 27.6382 0.1875 26.7857 0.1875Z" fill="#FD8061"/>
</svg>
