<svg fill="none" xmlns="http://www.w3.org/2000/svg"><g id="bg_patterns" opacity="0.1" fill-rule="evenodd" clip-rule="evenodd" stroke="#FFE268" stroke-width="1.5"><path id="bg_pattern" d="M247.225 516.942c3.365 13.02 3.314 27.233 3.755 41.631.447 14.598 2.687 29.954-1.172 42.738-3.977 13.178-12.183 18.86-19.481 25.696-8.295 7.769-16.436 18.292-25.695 16.62-10.05-1.815-21.29-9.479-25.967-25.949-4.616-16.259 1.325-35.4 3.457-53.328 1.539-12.944 3.922-24.652 7.215-36.436 3.753-13.424 6.528-28.211 13.263-36.827 7.936-10.153 17.895-20.162 27.11-14.823 9.192 5.326 13.376 24.661 17.515 40.678z"/><path id="bg_pattern_2" d="M240.778 518.029c2.373 9.184 2.337 19.209 2.648 29.365.316 10.297 1.895 21.128-.826 30.146-2.805 9.295-8.594 13.303-13.742 18.125-5.85 5.48-11.593 12.902-18.124 11.723-7.089-1.28-15.017-6.686-18.316-18.303-3.256-11.469.935-24.97 2.438-37.616 1.086-9.131 2.767-17.389 5.09-25.701 2.647-9.469 4.604-19.899 9.354-25.976 5.598-7.162 12.623-14.221 19.123-10.456 6.484 3.757 9.435 17.395 12.355 28.693z"/><path id="bg_pattern_3" d="M231.499 531.662c1.434 5.55 1.413 11.607 1.6 17.744.191 6.222 1.146 12.767-.499 18.217-1.695 5.616-5.193 8.038-8.304 10.952-3.535 3.311-7.005 7.796-10.951 7.084-4.284-.774-9.075-4.04-11.068-11.06-1.968-6.93.565-15.089 1.473-22.73.656-5.518 1.672-10.508 3.076-15.53 1.599-5.722 2.782-12.024 5.652-15.697 3.383-4.327 7.628-8.593 11.556-6.318 3.917 2.27 5.701 10.511 7.465 17.338z"/><path id="bg_pattern_4" d="M132.731 232.738c15.568.593 22.356 37.578 35.047 54.186 11.863 15.524 27.936 18.783 36.873 39.931 10.008 23.68 19.111 54.38 15.315 83.558-3.788 29.123-23.104 39.612-34.187 61.533-10.552 20.872-15.425 51.531-29.328 64.098-14.825 13.4-32.6 14.876-48.426 6.184-15.7949-8.673-27.2482-31.914-38.5729-53.961-11.7961-22.965-25.5949-45.501-28.5145-76.647-2.9451-31.419 1.9578-65.869 12.8289-90.688 10.1176-23.099 29.193-21.321 42.9734-36.712 13.2581-14.807 20.4881-52.072 35.9911-51.482z"/><path id="bg_pattern_5" d="M132.172 268.97c11.996.456 17.227 28.933 27.007 41.72 9.142 11.953 21.527 14.462 28.414 30.745 7.712 18.233 14.726 41.87 11.802 64.335-2.919 22.424-17.805 30.5-26.345 47.378-8.131 16.07-11.886 39.676-22.599 49.351-11.424 10.318-25.122 11.454-37.317 4.762-12.171-6.678-20.9971-24.572-29.7237-41.547-9.0899-17.682-19.7231-35.033-21.973-59.015-2.2694-24.191 1.5088-50.715 9.8859-69.824 7.7964-17.785 22.4957-16.416 33.1148-28.267 10.216-11.4 15.788-40.092 27.734-39.638z"/><path id="bg_pattern_6" d="M131.665 304.273c8.519.323 12.234 20.508 19.179 29.572 6.491 8.472 15.287 10.251 20.178 21.792 5.476 12.924 10.457 29.678 8.38 45.602-2.073 15.894-12.643 21.618-18.708 33.581-5.774 11.391-8.441 28.123-16.049 34.981-8.113 7.313-17.84 8.119-26.5 3.376-8.644-4.734-14.911-17.417-21.1083-29.45-6.4551-12.533-14.0063-24.832-15.604-41.83-1.6116-17.147 1.0714-35.947 7.0204-49.492 5.5366-12.606 15.9749-11.636 23.5159-20.036 7.255-8.081 11.212-28.418 19.696-28.096z"/><path id="bg_pattern_7" d="M131.155 339.576c4.998.19 7.178 12.083 11.253 17.423 3.809 4.992 8.969 6.04 11.839 12.84 3.213 7.614 6.136 17.486 4.917 26.868-1.216 9.365-7.418 12.737-10.977 19.786-3.388 6.711-4.952 16.57-9.416 20.61-4.76 4.309-10.468 4.784-15.549 1.989-5.071-2.789-8.749-10.262-12.385-17.351-3.787-7.385-8.218-14.631-9.155-24.646-.946-10.103.628-21.18 4.119-29.16 3.248-7.428 9.373-6.856 13.798-11.805 4.256-4.761 6.578-16.744 11.556-16.554z"/><path id="bg_pattern_8" d="M345.074 98.4479c10.39-8.6964 22.55-13.6972 33.343-6.8434 10.435 6.6255 15.098 27.9495 22.809 42.4985 7.461 14.08 17.597 23.547 21.784 41.647 4.569 19.756 6.474 42.833 2.411 62.953-4.047 20.039-13.879 34.347-24.104 44.466-9.277 9.181-19.999 10.624-30.518 9.59-9.458-.93-17.769-8.847-26.59-15.206-10.05-7.245-22.533-8.44-28.751-24.69-6.289-16.432-4.231-38.779-3.194-58.786 1.005-19.375 3.434-38.254 9.078-54.704 5.909-17.223 13.661-32.497 23.732-40.9251z"/><path id="bg_pattern_9" d="M349.474 119.938c8.118-6.794 17.618-10.701 26.051-5.346 8.152 5.176 11.795 21.836 17.819 33.203 5.83 11 13.748 18.397 17.02 32.538 3.57 15.434 5.058 33.464 1.884 49.183-3.162 15.656-10.844 26.835-18.832 34.74-7.249 7.173-15.625 8.301-23.844 7.492-7.389-.726-13.882-6.911-20.773-11.88-7.852-5.66-17.605-6.593-22.463-19.289-4.913-12.838-3.306-30.297-2.495-45.928.785-15.138 2.683-29.887 7.092-42.739 4.617-13.456 10.673-25.389 18.541-31.974z"/><path id="bg_pattern_10" d="M354.091 142.463c5.736-4.8 12.448-7.561 18.406-3.777 5.76 3.657 8.335 15.428 12.591 23.46 4.119 7.772 9.714 12.998 12.025 22.989 2.522 10.906 3.574 23.644 1.331 34.751-2.234 11.062-7.662 18.96-13.306 24.546-5.121 5.068-11.039 5.865-16.846 5.294-5.221-.514-9.809-4.884-14.678-8.394-5.548-4-12.439-4.659-15.871-13.629-3.471-9.071-2.336-21.407-1.763-32.451.554-10.695 1.896-21.117 5.011-30.197 3.262-9.507 7.541-17.939 13.1-22.592z"/><path id="bg_pattern_11" d="M358.202 162.54c3.613-3.023 7.84-4.762 11.593-2.379 3.627 2.303 5.249 9.717 7.93 14.776 2.594 4.895 6.118 8.186 7.573 14.479 1.589 6.869 2.251 14.892.839 21.887-1.407 6.967-4.826 11.942-8.381 15.46-3.225 3.192-6.953 3.694-10.61 3.334-3.288-.324-6.178-3.076-9.245-5.287-3.494-2.519-7.834-2.934-9.996-8.584-2.186-5.713-1.471-13.482-1.11-20.438.349-6.736 1.194-13.3 3.156-19.019 2.055-5.988 4.75-11.299 8.251-14.229z"/><path id="bg_pattern_12" d="M-32.1516 516.152c-13.2533 4.371-27.622-1.74-38.5965-16.1-10.7833-14.111-14.533-39.13-20.3367-61.018-5.9682-22.507-18.1552-44.97-14.1082-68.882 4.149-24.512 22.8678-26.996 33.2404-44.158 8.5903-14.213 12.4672-35.722 22.111-47.422 12.0856-14.663 25.3294-28.55 39.7957-27.686 16.22217.97 37.5977 5.473 44.2745 32.708 7.249 29.57-9.1188 60.632-13.7143 91.951-2.5905 17.655-3.7253 35.008-7.407 51.993-3.87105 17.858-7.47793 35.674-14.63245 49.682-8.67395 16.983-18.16245 34.821-30.62645 38.932z"/><path id="bg_pattern_13" d="M-32.6489 492.658c-10.8997 3.593-22.7167-1.43-31.7423-13.237-8.8683-11.601-11.9521-32.171-16.7251-50.165-4.9083-18.504-14.9311-36.972-11.6027-56.631 3.412-20.153 18.8067-22.195 27.3373-36.305 7.0648-11.685 10.2531-29.368 18.1844-38.988 9.9392-12.055 20.8311-23.472 32.7283-22.761 13.34139.796 30.9209 4.498 36.4119 26.89 5.9618 24.311-7.4993 49.848-11.2788 75.598-2.13041 14.514-3.06364 28.781-6.09151 42.745-3.18363 14.682-6.14997 29.329-12.03394 40.846-7.13355 13.963-14.93705 28.628-25.18755 32.008z"/><path id="bg_pattern_14" d="M-33.2523 464.616c-8.0747 2.665-16.829-1.06-23.5153-9.815-6.5699-8.603-8.8544-23.856-12.3904-37.199-3.6362-13.722-11.0612-27.416-8.5955-41.994 2.5277-14.943 13.9324-16.458 20.252-26.92 5.2338-8.665 7.5958-21.778 13.4714-28.911 7.3632-8.939 15.4321-17.405 24.2459-16.878 9.88351.591 22.90676 3.336 26.97466 19.94 4.41654 18.027-5.55568 36.964-8.35558 56.057-1.57828 10.763-2.26963 21.342-4.51274 31.697-2.3585 10.887-4.55604 21.749-8.91504 30.288-5.2847 10.354-11.0656 21.229-18.6594 23.735z"/><path id="bg_pattern_15" d="M327.016 308.024c13.116-.454 25.929 3.111 37.911 12.941 13.537 11.105 26.834 24.641 35.259 47.086 9.307 24.793 21.051 57.279 14.19 84.642-7.36 29.351-34.391 18.607-46.113 42.676-11.371 23.349-3.354 67.778-16.917 86.75-13.492 18.873-33.666 16.592-49.684 6.413-15.75-10.01-27.803-34.328-36.099-60.93-7.452-23.894-5.019-52.627-7.764-79.711-2.897-28.592-15.623-57.68-8.822-83.933 6.815-26.306 26.279-29.828 41.031-40.402 12.034-8.625 24.096-15.086 37.008-15.532z"/><path id="bg_pattern_16" d="M327.955 338.675c10.334-.358 20.428 2.451 29.869 10.197 10.664 8.75 21.14 19.416 27.778 37.101 7.332 19.535 16.584 45.133 11.178 66.694-5.797 23.126-27.094 14.66-36.329 33.626-8.958 18.397-2.642 53.405-13.327 68.354-10.63 14.871-26.524 13.073-39.143 5.053-12.408-7.888-21.904-27.049-28.44-48.01-5.871-18.827-3.954-41.467-6.116-62.808-2.283-22.529-12.309-45.448-6.951-66.134 5.369-20.728 20.703-23.503 32.326-31.834 9.481-6.797 18.983-11.887 29.155-12.239z"/><path id="bg_pattern_17" d="M329.103 373.97c7.13-.246 14.095 1.69 20.609 7.028 7.358 6.03 14.586 13.38 19.166 25.568 5.059 13.463 11.443 31.104 7.713 45.963-4 15.938-18.694 10.103-25.066 23.174-6.181 12.678-1.823 36.804-9.196 47.107-7.334 10.248-18.3 9.01-27.007 3.482-8.562-5.436-15.114-18.641-19.624-33.087-4.051-12.974-2.728-28.577-4.22-43.284-1.575-15.526-8.492-31.321-4.795-45.577 3.704-14.285 14.284-16.198 22.304-21.939 6.541-4.684 13.098-8.193 20.116-8.435z"/><path id="bg_pattern_18" d="M330.083 404.157c4.395-.152 8.689 1.037 12.704 4.316 4.536 3.704 8.992 8.219 11.815 15.705 3.119 8.27 7.054 19.106 4.755 28.233-2.466 9.79-11.524 6.206-15.452 14.234-3.81 7.788-1.124 22.607-5.669 28.935-4.521 6.295-11.281 5.535-16.648 2.139-5.278-3.338-9.317-11.45-12.097-20.323-2.497-7.969-1.682-17.553-2.601-26.587-.971-9.537-5.235-19.239-2.957-27.996 2.284-8.774 8.806-9.949 13.749-13.476 4.033-2.877 8.075-5.031 12.401-5.18z"/><path id="bg_pattern_19" d="M41.2988 12.7433c12.9807 1.6921 25.6519-1.9355 38.166 4.6359 16.3672 8.5949 36.2672 12.5925 45.2732 39.1801 9 26.5682 6.103 63.4277-.831 92.0187-6.33 26.1-24.1477 33.592-34.712 54.539-10.0327 19.893-10.9726 59.038-25.399 64.649-14.7376 5.733-24.5452-30.036-38.6575-39.732-12.6099-8.663-28.02625 1.141-38.8715-13.534-11.616-15.718-23.2229-41.378-21.1141-67.633 2.2056-27.46 24.99166-32.648 31.20049-57.9436C2.60657 63.4467-11.6781 25.8907-.506144 6.9549 9.98711-10.8306 27.0712 10.8887 41.2988 12.7433z"/><path id="bg_pattern_20" d="M42.89 42.5987c9.7782 1.2769 19.3231-1.4607 28.7498 3.4985 12.3291 6.4861 27.3193 9.5029 34.1032 29.5672 6.78 20.0497 4.598 47.8656-.626 69.4416-4.768 19.697-18.1897 25.351-26.1477 41.158-7.5574 15.013-8.2654 44.553-19.1325 48.788-11.1016 4.326-18.4895-22.667-29.12-29.984-9.4989-6.538-21.11169.861-29.28119-10.213-8.75017-11.862-17.49341-31.227-15.90491-51.04 1.6614-20.723 18.82577-24.637 23.50277-43.727 4.71043-19.226-6.04996-47.5676 2.36563-61.8575 7.9044-13.4219 20.7735 2.9686 31.4909 4.3682z"/><path id="bg_pattern_21" d="M44.7277 77.9139c6.0174.7849 11.8912-.8978 17.6922 2.1505 7.5872 3.9868 16.8119 5.8412 20.9869 18.1743 4.1719 12.3243 2.829 29.4223-.3852 42.6843-2.9343 12.107-11.194 15.583-16.0912 25.299-4.6507 9.228-5.0864 27.386-11.7739 29.989-6.8317 2.659-11.3781-13.933-17.92-18.431-5.8454-4.018-12.9918.53-18.0192-6.278-5.3847-7.291-10.76515-19.194-9.78761-31.372 1.02241-12.738 11.58511-15.145 14.46321-26.879 2.8988-11.817-3.723-29.2384 1.4558-38.0222 4.8643-8.2501 12.7837 1.8248 19.379 2.6851z"/><path id="bg_pattern_22" d="M226.965 11.1536c17.184.5848 22.441 45.6256 32.141 71.7447 6.175 16.6262 8.08 36.4267 14.22 53.0947 7.932 21.53 27.329 32.355 26.84 58.354-.472 25.129-19.81 32.528-28.9 51.294-8.907 18.387-10.956 50.961-23.844 57.591-12.913 6.642-24.332-16.9-36.694-26.452-10.763-8.316-22.397-12.053-31.254-26.049-9.799-15.487-16.445-35.668-21.594-57.473-6.621-28.039-20.945-60.557-12.49-86.872 8.769-27.2911 34.116-8.7208 48.661-25.7017 14.394-16.8041 15.873-70.1107 32.914-69.5307z"/><path id="bg_pattern_23" d="M225.264 57.6053c11.736.3992 15.327 31.1508 21.952 48.9837 4.217 11.351 5.518 24.87 9.712 36.25 5.418 14.7 18.665 22.091 18.332 39.842-.323 17.157-13.53 22.208-19.739 35.02-6.083 12.554-7.482 34.794-16.285 39.321-8.819 4.534-16.619-11.539-25.062-18.061-7.351-5.677-15.297-8.228-21.346-17.785-6.692-10.573-11.232-24.352-14.748-39.239-4.522-19.144-14.306-41.346-8.531-59.312 5.989-18.633 23.301-5.954 33.235-17.548 9.831-11.4727 10.841-47.8677 22.48-47.4717z"/><path id="bg_pattern_24" d="M223.417 106.844c5.95.203 7.771 15.829 11.13 24.89 2.138 5.768 2.798 12.637 4.925 18.419 2.747 7.469 9.464 11.225 9.294 20.245-.163 8.717-6.86 11.284-10.008 17.794-3.084 6.379-3.794 17.68-8.257 19.98-4.472 2.304-8.426-5.863-12.708-9.177-3.727-2.885-7.756-4.181-10.823-9.037-3.393-5.373-5.695-12.374-7.478-19.938-2.293-9.728-7.253-21.009-4.325-30.138 3.036-9.468 11.814-3.025 16.851-8.916 4.985-5.83 5.497-24.323 11.399-24.122z"/></g></svg>