<svg viewBox="0 0 360 631" fill="none" xmlns="http://www.w3.org/2000/svg">
<g style="mix-blend-mode:lighten" filter="url(#filter0_bd)">
<path fill-rule="evenodd" clip-rule="evenodd" d="M101.827 716.768C97.0252 652.124 -27.3379 682.446 -6.74341 589.312C14.1395 494.874 177.903 455.809 182.17 391.069C187.108 316.125 295.271 346.065 228.45 250.59C161.63 155.115 278.295 172.883 332.443 101.087C393.512 20.114 403.786 78.2806 452.019 128.833C476.066 154.036 502.221 182.879 525.166 210.069C550.75 240.384 571.969 259.163 593.095 296.002C631.045 362.179 593.019 524.169 579.377 613.897C566.518 698.473 491.488 736.79 435.276 769.098C385.429 797.748 107.677 795.52 101.827 716.768Z" fill="url(#paint0_linear)"/>
<path fill-rule="evenodd" clip-rule="evenodd" d="M101.827 716.768C97.0252 652.124 -27.3379 682.446 -6.74341 589.312C14.1395 494.874 177.903 455.809 182.17 391.069C187.108 316.125 295.271 346.065 228.45 250.59C161.63 155.115 278.295 172.883 332.443 101.087C393.512 20.114 403.786 78.2806 452.019 128.833C476.066 154.036 502.221 182.879 525.166 210.069C550.75 240.384 571.969 259.163 593.095 296.002C631.045 362.179 593.019 524.169 579.377 613.897C566.518 698.473 491.488 736.79 435.276 769.098C385.429 797.748 107.677 795.52 101.827 716.768Z" stroke="url(#paint1_linear)"/>
</g>
<defs>
<filter id="filter0_bd" x="-51.4087" y="0.914917" width="724.87" height="848.88" filterUnits="userSpaceOnUse" color-interpolation-filters="sRGB">
<feFlood flood-opacity="0" result="BackgroundImageFix"/>
<feGaussianBlur in="BackgroundImage" stdDeviation="5.5"/>
<feComposite in2="SourceAlpha" operator="in" result="effect1_backgroundBlur"/>
<feColorMatrix in="SourceAlpha" type="matrix" values="0 0 0 0 0 0 0 0 0 0 0 0 0 0 0 0 0 0 127 0"/>
<feOffset dy="4"/>
<feGaussianBlur stdDeviation="12"/>
<feColorMatrix type="matrix" values="0 0 0 0 0 0 0 0 0 0 0 0 0 0 0 0 0 0 0.3 0"/>
<feBlend mode="normal" in2="effect1_backgroundBlur" result="effect2_dropShadow"/>
<feBlend mode="normal" in="SourceGraphic" in2="effect2_dropShadow" result="shape"/>
</filter>
<linearGradient id="paint0_linear" x1="228.545" y1="213.847" x2="291.801" y2="612.46" gradientUnits="userSpaceOnUse">
<stop stop-color="#FFE268" stop-opacity="0.3"/>
<stop offset="1" stop-color="#FFE268" stop-opacity="0.1"/>
</linearGradient>
<linearGradient id="paint1_linear" x1="95.4109" y1="698.46" x2="225.75" y2="226.814" gradientUnits="userSpaceOnUse">
<stop stop-color="#F6E186"/>
<stop offset="0.042305" stop-color="#F4DF85" stop-opacity="0"/>
<stop offset="0.14264" stop-color="#F3DE85" stop-opacity="0"/>
<stop offset="0.265114" stop-color="#E9D685"/>
<stop offset="0.833058" stop-color="#FFE268"/>
<stop offset="1" stop-color="white" stop-opacity="0"/>
</linearGradient>
</defs>
</svg>
