<svg width="360" height="1212" viewBox="0 0 360 1212" fill="none" xmlns="http://www.w3.org/2000/svg">
<g opacity="0.1">
<path fill-rule="evenodd" clip-rule="evenodd" d="M247.225 978.959C250.59 1003.62 250.539 1030.53 250.98 1057.8C251.427 1085.44 253.667 1114.52 249.808 1138.73C245.831 1163.69 237.625 1174.45 230.327 1187.4C222.032 1202.11 213.891 1222.04 204.632 1218.87C194.582 1215.43 183.342 1200.92 178.665 1169.73C174.049 1138.94 179.99 1102.69 182.122 1068.74C183.661 1044.22 186.044 1022.05 189.337 999.738C193.09 974.315 195.865 946.313 202.6 929.996C210.536 910.769 220.495 891.815 229.71 901.926C238.902 912.011 243.086 948.627 247.225 978.959Z" stroke="#FFE268" stroke-width="1.5"/>
<path fill-rule="evenodd" clip-rule="evenodd" d="M240.778 981.017C243.151 998.409 243.115 1017.39 243.426 1036.63C243.742 1056.13 245.321 1076.64 242.6 1093.72C239.795 1111.32 234.006 1118.91 228.858 1128.04C223.008 1138.42 217.265 1152.47 210.734 1150.24C203.645 1147.82 195.717 1137.58 192.418 1115.58C189.162 1093.86 193.353 1068.29 194.856 1044.34C195.942 1027.05 197.623 1011.41 199.946 995.674C202.593 977.742 204.55 957.99 209.3 946.481C214.898 932.918 221.923 919.549 228.423 926.681C234.907 933.794 237.858 959.622 240.778 981.017Z" stroke="#FFE268" stroke-width="1.5"/>
<path fill-rule="evenodd" clip-rule="evenodd" d="M231.499 1006.84C232.933 1017.34 232.912 1028.82 233.099 1040.44C233.29 1052.22 234.245 1064.62 232.6 1074.94C230.905 1085.57 227.407 1090.16 224.296 1095.68C220.761 1101.95 217.291 1110.44 213.345 1109.09C209.061 1107.63 204.27 1101.44 202.277 1088.15C200.309 1075.02 202.842 1059.57 203.75 1045.1C204.406 1034.65 205.422 1025.2 206.826 1015.69C208.425 1004.86 209.608 992.921 212.478 985.966C215.861 977.771 220.106 969.692 224.034 974.002C227.951 978.3 229.735 993.907 231.499 1006.84Z" stroke="#FFE268" stroke-width="1.5"/>
<path fill-rule="evenodd" clip-rule="evenodd" d="M132.731 440.748C148.299 441.87 155.087 511.91 167.778 543.362C179.641 572.761 195.714 578.933 204.651 618.982C214.659 663.826 223.762 721.963 219.966 777.22C216.178 832.372 196.862 852.235 185.779 893.748C175.227 933.274 170.354 991.335 156.451 1015.13C141.626 1040.51 123.851 1043.3 108.025 1026.84C92.2301 1010.42 80.7768 966.408 69.4521 924.656C57.656 881.165 43.8572 838.489 40.9376 779.505C37.9925 720.005 42.8954 654.767 53.7665 607.765C63.8841 564.022 82.9595 567.388 96.7399 538.242C109.998 510.2 117.228 439.63 132.731 440.748Z" stroke="#FFE268" stroke-width="1.5"/>
<path fill-rule="evenodd" clip-rule="evenodd" d="M132.172 509.362C144.168 510.226 149.399 564.153 159.179 588.37C168.321 611.005 180.706 615.757 187.593 646.593C195.305 681.121 202.319 725.883 199.395 768.427C196.476 810.892 181.59 826.186 173.05 858.148C164.919 888.581 161.164 933.285 150.451 951.608C139.027 971.147 125.329 973.298 113.134 960.626C100.963 947.978 92.1369 914.092 83.4103 881.945C74.3204 848.46 63.6872 815.601 61.4373 770.187C59.1679 724.375 62.9461 674.145 71.3232 637.957C79.1196 604.276 93.8189 606.869 104.438 584.427C114.654 562.837 120.226 508.502 132.172 509.362Z" stroke="#FFE268" stroke-width="1.5"/>
<path fill-rule="evenodd" clip-rule="evenodd" d="M131.665 576.217C140.184 576.83 143.899 615.054 150.844 632.219C157.335 648.263 166.131 651.631 171.022 673.488C176.498 697.961 181.479 729.69 179.402 759.846C177.329 789.945 166.759 800.785 160.694 823.441C154.92 845.012 152.253 876.698 144.645 889.686C136.532 903.535 126.805 905.061 118.145 896.078C109.501 887.114 103.234 863.095 97.0367 840.309C90.5816 816.574 83.0304 793.283 81.4327 761.093C79.8211 728.621 82.5041 693.017 88.4531 667.366C93.9897 643.493 104.428 645.331 111.969 629.424C119.224 614.121 123.181 575.607 131.665 576.217Z" stroke="#FFE268" stroke-width="1.5"/>
<path fill-rule="evenodd" clip-rule="evenodd" d="M131.155 643.072C136.153 643.433 138.333 665.954 142.408 676.068C146.217 685.521 151.377 687.505 154.247 700.383C157.46 714.803 160.383 733.496 159.164 751.264C157.948 768.998 151.746 775.385 148.187 788.734C144.799 801.443 143.234 820.112 138.771 827.765C134.011 835.924 128.303 836.823 123.222 831.531C118.151 826.249 114.473 812.097 110.837 798.672C107.05 784.688 102.619 770.965 101.682 751.999C100.736 732.867 102.31 711.89 105.801 696.776C109.049 682.711 115.174 683.793 119.599 674.421C123.855 665.404 126.177 642.713 131.155 643.072Z" stroke="#FFE268" stroke-width="1.5"/>
<path fill-rule="evenodd" clip-rule="evenodd" d="M345.074 186.436C355.464 169.967 367.624 160.497 378.417 173.476C388.852 186.023 393.515 226.406 401.226 253.958C408.687 280.622 418.823 298.55 423.01 332.827C427.579 370.24 429.484 413.941 425.421 452.043C421.374 489.993 411.542 517.089 401.317 536.251C392.04 553.638 381.318 556.371 370.799 554.412C361.341 552.65 353.03 537.658 344.209 525.616C334.159 511.895 321.676 509.633 315.458 478.86C309.169 447.742 311.227 405.423 312.264 367.534C313.269 330.841 315.698 295.09 321.342 263.937C327.251 231.322 335.003 202.396 345.074 186.436Z" stroke="#FFE268" stroke-width="1.5"/>
<path fill-rule="evenodd" clip-rule="evenodd" d="M349.474 227.133C357.592 214.266 367.092 206.867 375.525 217.008C383.677 226.81 387.32 258.36 393.344 279.887C399.174 300.718 407.092 314.725 410.364 341.505C413.934 370.734 415.422 404.877 412.248 434.646C409.086 464.294 401.404 485.464 393.416 500.435C386.167 514.019 377.791 516.154 369.572 514.624C362.183 513.248 355.69 501.535 348.799 492.126C340.947 481.406 331.194 479.639 326.336 455.597C321.423 431.285 323.03 398.222 323.841 368.62C324.626 339.953 326.524 312.022 330.933 287.683C335.55 262.202 341.606 239.602 349.474 227.133Z" stroke="#FFE268" stroke-width="1.5"/>
<path fill-rule="evenodd" clip-rule="evenodd" d="M354.091 269.79C359.827 260.699 366.539 255.472 372.497 262.636C378.257 269.562 380.832 291.854 385.088 307.064C389.207 321.782 394.802 331.679 397.113 350.6C399.635 371.252 400.687 395.376 398.444 416.409C396.21 437.357 390.782 452.315 385.138 462.893C380.017 472.491 374.099 473.999 368.292 472.918C363.071 471.945 358.483 463.67 353.614 457.022C348.066 449.448 341.175 448.199 337.743 431.212C334.272 414.035 335.407 390.674 335.98 369.759C336.534 349.504 337.876 329.769 340.991 312.572C344.253 294.568 348.532 278.601 354.091 269.79Z" stroke="#FFE268" stroke-width="1.5"/>
<path fill-rule="evenodd" clip-rule="evenodd" d="M358.202 307.81C361.815 302.085 366.042 298.792 369.795 303.305C373.422 307.667 375.044 321.707 377.725 331.286C380.319 340.557 383.843 346.79 385.298 358.707C386.887 371.714 387.549 386.908 386.137 400.155C384.73 413.349 381.311 422.77 377.756 429.432C374.531 435.477 370.803 436.427 367.146 435.746C363.858 435.134 360.968 429.921 357.901 425.734C354.407 420.964 350.067 420.177 347.905 409.479C345.719 398.66 346.434 383.946 346.795 370.773C347.144 358.016 347.989 345.587 349.951 334.756C352.006 323.416 354.701 313.36 358.202 307.81Z" stroke="#FFE268" stroke-width="1.5"/>
<path fill-rule="evenodd" clip-rule="evenodd" d="M-32.1516 977.462C-45.4049 985.74 -59.7736 974.168 -70.7481 946.973C-81.5314 920.251 -85.2811 872.87 -91.0848 831.421C-97.053 788.798 -109.24 746.259 -105.193 700.976C-101.044 654.555 -82.3252 649.851 -71.9526 617.351C-63.3623 590.435 -59.4854 549.703 -49.8416 527.546C-37.756 499.778 -24.5122 473.48 -10.0459 475.116C6.17627 476.951 27.5518 485.479 34.2286 537.056C41.4776 593.054 25.1098 651.878 20.5143 711.189C17.9238 744.622 16.789 777.484 13.1073 809.649C9.23625 843.469 5.62937 877.207 -1.52515 903.735C-10.1991 935.897 -19.6876 969.677 -32.1516 977.462Z" stroke="#FFE268" stroke-width="1.5"/>
<path fill-rule="evenodd" clip-rule="evenodd" d="M-32.6489 932.97C-43.5486 939.776 -55.3656 930.262 -64.3912 907.904C-73.2595 885.934 -76.3433 846.981 -81.1163 812.903C-86.0246 777.861 -96.0474 742.888 -92.719 705.658C-89.307 667.494 -73.9123 663.626 -65.3817 636.906C-58.3169 614.778 -55.1286 581.29 -47.1973 563.073C-37.2581 540.244 -26.3662 518.623 -14.469 519.968C-1.12761 521.477 16.4519 528.488 21.9429 570.892C27.9047 616.93 14.4436 665.292 10.6641 714.055C8.53369 741.542 7.60046 768.559 4.57259 795.004C1.38896 822.808 -1.57738 850.546 -7.46135 872.356C-14.5949 898.798 -22.3984 926.57 -32.6489 932.97Z" stroke="#FFE268" stroke-width="1.5"/>
<path fill-rule="evenodd" clip-rule="evenodd" d="M-33.2523 879.866C-41.327 884.913 -50.0813 877.858 -56.7676 861.279C-63.3375 844.988 -65.622 816.103 -69.158 790.834C-72.7942 764.849 -80.2192 738.915 -77.7535 711.308C-75.2258 683.009 -63.8211 680.141 -57.5015 660.327C-52.2677 643.918 -49.9057 619.086 -44.0301 605.578C-36.6669 588.65 -28.598 572.617 -19.7842 573.615C-9.90069 574.734 3.12256 579.932 7.19046 611.376C11.607 645.515 1.63478 681.376 -1.16512 717.535C-2.7434 737.917 -3.43475 757.951 -5.67786 777.561C-8.03636 798.178 -10.2339 818.747 -14.5929 834.919C-19.8776 854.527 -25.6585 875.12 -33.2523 879.866Z" stroke="#FFE268" stroke-width="1.5"/>
<path fill-rule="evenodd" clip-rule="evenodd" d="M327.016 583.32C340.132 582.461 352.945 589.212 364.927 607.828C378.464 628.858 391.761 654.491 400.186 696.996C409.493 743.948 421.237 805.469 414.376 857.288C407.016 912.871 379.985 892.524 368.263 938.105C356.892 982.322 364.909 1066.46 351.346 1102.39C337.854 1138.13 317.68 1133.81 301.662 1114.53C285.912 1095.58 273.859 1049.52 265.563 999.146C258.111 953.897 260.544 899.485 257.799 848.193C254.902 794.047 242.176 738.963 248.977 689.246C255.792 639.428 275.256 632.759 290.008 612.735C302.042 596.4 314.104 584.165 327.016 583.32Z" stroke="#FFE268" stroke-width="1.5"/>
<path fill-rule="evenodd" clip-rule="evenodd" d="M327.955 641.365C338.289 640.688 348.383 646.008 357.824 660.676C368.488 677.247 378.964 697.445 385.602 730.936C392.934 767.932 402.186 816.407 396.78 857.237C390.983 901.033 369.686 885.001 360.451 920.916C351.493 955.757 357.809 1022.05 347.124 1050.36C336.494 1078.52 320.6 1075.12 307.981 1059.93C295.573 1044.99 286.077 1008.71 279.541 969.013C273.67 933.36 275.587 890.486 273.425 850.071C271.142 807.407 261.116 764.003 266.474 724.829C271.843 685.576 287.177 680.321 298.8 664.543C308.281 651.672 317.783 642.032 327.955 641.365Z" stroke="#FFE268" stroke-width="1.5"/>
<path fill-rule="evenodd" clip-rule="evenodd" d="M329.103 708.206C336.233 707.739 343.198 711.405 349.712 721.514C357.07 732.934 364.298 746.853 368.878 769.934C373.937 795.43 380.321 828.838 376.591 856.976C372.591 887.159 357.897 876.11 351.525 900.862C345.344 924.872 349.702 970.561 342.329 990.071C334.995 1009.48 324.029 1007.13 315.322 996.665C306.76 986.372 300.208 961.364 295.698 934.008C291.647 909.437 292.97 879.89 291.478 852.038C289.903 822.635 282.986 792.723 286.683 765.726C290.387 738.674 300.967 735.052 308.987 724.179C315.528 715.309 322.085 708.665 329.103 708.206Z" stroke="#FFE268" stroke-width="1.5"/>
<path fill-rule="evenodd" clip-rule="evenodd" d="M330.083 765.372C334.478 765.085 338.772 767.337 342.787 773.546C347.323 780.561 351.779 789.111 354.602 803.288C357.721 818.949 361.656 839.469 359.357 856.753C356.891 875.292 347.833 868.506 343.905 883.709C340.095 898.458 342.781 926.522 338.236 938.505C333.715 950.427 326.955 948.986 321.588 942.556C316.31 936.233 312.271 920.873 309.491 904.069C306.994 888.977 307.809 870.827 306.89 853.719C305.919 835.659 301.655 817.286 303.933 800.703C306.217 784.086 312.739 781.862 317.682 775.183C321.715 769.735 325.757 765.654 330.083 765.372Z" stroke="#FFE268" stroke-width="1.5"/>
<path fill-rule="evenodd" clip-rule="evenodd" d="M41.2988 24.1326C54.2795 27.337 66.9507 20.4673 79.4648 32.9119C95.832 49.1884 115.732 56.7589 124.738 107.109C133.738 157.423 130.841 227.225 123.907 281.369C117.577 330.797 99.7593 344.985 89.195 384.653C79.1623 422.325 78.2224 496.455 63.796 507.082C49.0584 517.939 39.2508 450.202 25.1385 431.84C12.5286 415.433 -2.88775 434 -13.733 406.21C-25.349 376.444 -36.9559 327.849 -34.8471 278.129C-32.6415 226.127 -9.85544 216.303 -3.64661 168.399C2.60657 120.152 -11.6781 49.0306 -0.506144 13.1708C9.98711 -20.5105 27.0712 20.6205 41.2988 24.1326Z" stroke="#FFE268" stroke-width="1.5"/>
<path fill-rule="evenodd" clip-rule="evenodd" d="M42.89 80.6711C52.6682 83.0893 62.2131 77.905 71.6398 87.2964C83.9689 99.5794 98.9591 105.293 105.743 143.289C112.523 181.259 110.341 233.935 105.117 274.795C100.349 312.095 86.9273 322.803 78.9693 352.738C71.4119 381.167 70.7039 437.11 59.8368 445.129C48.7352 453.322 41.3473 402.204 30.7168 388.348C21.2179 375.966 9.60511 389.978 1.43561 369.006C-7.31456 346.543 -16.0578 309.871 -14.4693 272.35C-12.8079 233.106 4.35647 225.693 9.03347 189.542C13.7439 153.132 2.98351 99.4604 11.3991 72.3988C19.3035 46.9812 32.1726 78.0207 42.89 80.6711Z" stroke="#FFE268" stroke-width="1.5"/>
<path fill-rule="evenodd" clip-rule="evenodd" d="M44.7277 147.549C50.7451 149.036 56.6189 145.849 62.4199 151.622C70.0071 159.172 79.2318 162.684 83.4068 186.04C87.5787 209.378 86.2358 241.757 83.0216 266.873C80.0873 289.801 71.8276 296.383 66.9304 314.783C62.2797 332.258 61.844 366.645 55.1565 371.574C48.3248 376.61 43.7784 345.189 37.2365 336.672C31.3911 329.061 24.2447 337.674 19.2173 324.783C13.8326 310.975 8.45215 288.434 9.42969 265.37C10.4521 241.248 21.0148 236.691 23.8929 214.47C26.7917 192.09 20.1699 159.099 25.3487 142.465C30.213 126.841 38.1324 145.92 44.7277 147.549Z" stroke="#FFE268" stroke-width="1.5"/>
<path fill-rule="evenodd" clip-rule="evenodd" d="M226.965 21.1222C244.149 22.2297 249.406 107.526 259.106 156.989C265.281 188.475 267.186 225.971 273.326 257.537C281.258 298.309 300.655 318.809 300.166 368.045C299.694 415.633 280.356 429.645 271.266 465.183C262.359 500.003 260.31 561.691 247.422 574.245C234.509 586.823 223.09 542.241 210.728 524.151C199.965 508.403 188.331 501.328 179.474 474.821C169.675 445.493 163.029 407.275 157.88 365.982C151.259 312.884 136.935 251.302 145.39 201.469C154.159 149.786 179.506 184.954 194.051 152.796C208.445 120.973 209.924 20.0239 226.965 21.1222Z" stroke="#FFE268" stroke-width="1.5"/>
<path fill-rule="evenodd" clip-rule="evenodd" d="M225.264 109.09C237 109.846 240.591 168.082 247.216 201.853C251.433 223.35 252.734 248.95 256.928 270.502C262.346 298.339 275.593 312.335 275.26 345.951C274.937 378.442 261.73 388.009 255.521 412.272C249.438 436.046 248.039 478.163 239.236 486.735C230.417 495.322 222.617 464.883 214.174 452.533C206.823 441.781 198.877 436.95 192.828 418.853C186.136 398.829 181.596 372.735 178.08 344.543C173.558 308.29 163.774 266.245 169.549 232.222C175.538 196.935 192.85 220.946 202.784 198.99C212.615 177.263 213.625 108.34 225.264 109.09Z" stroke="#FFE268" stroke-width="1.5"/>
<path fill-rule="evenodd" clip-rule="evenodd" d="M223.417 202.336C229.367 202.72 231.188 232.311 234.547 249.471C236.685 260.394 237.345 273.402 239.472 284.353C242.219 298.497 248.936 305.609 248.766 322.69C248.603 339.2 241.906 344.061 238.758 356.389C235.674 368.469 234.964 389.87 230.501 394.225C226.029 398.589 222.075 383.122 217.793 376.847C214.066 371.383 210.037 368.929 206.97 359.733C203.577 349.559 201.275 336.3 199.492 321.975C197.199 303.554 192.239 282.19 195.167 264.902C198.203 246.972 206.981 259.172 212.018 248.016C217.003 236.976 217.515 201.955 223.417 202.336Z" stroke="#FFE268" stroke-width="1.5"/>
</g>
</svg>
