<svg width="33" height="23" viewBox="0 0 33 23" fill="none" xmlns="http://www.w3.org/2000/svg">
<path d="M16.5234 12.6621L5.89843 21.959C5.16405 22.6016 3.97655 22.6016 3.24999 21.959L1.48436 20.4141C0.749989 19.7715 0.749989 18.7324 1.48436 18.0967L9.0078 11.5L1.47655 4.91016C0.742178 4.26758 0.742178 3.22852 1.47655 2.59278L3.24218 1.04102C3.97655 0.398437 5.16405 0.398437 5.89062 1.04102L16.5156 10.3379C17.2578 10.9805 17.2578 12.0195 16.5234 12.6621ZM31.5234 10.3379L20.8984 1.04102C20.1641 0.398438 18.9766 0.398438 18.25 1.04102L16.4844 2.58594C15.75 3.22852 15.75 4.26758 16.4844 4.90332L24.0078 11.5L16.4766 18.0898C15.7422 18.7324 15.7422 19.7715 16.4766 20.4072L18.2422 21.959C18.9766 22.6016 20.1641 22.6016 20.8906 21.959L31.5156 12.6621C32.2578 12.0195 32.2578 10.9805 31.5234 10.3379Z" fill="#FD8061"/>
</svg>
