<svg width="1440" height="1024" fill="none" xmlns="http://www.w3.org/2000/svg"><g id="bg_patterns" opacity="0.1" fill-rule="evenodd" clip-rule="evenodd" stroke="#FFE268" stroke-width="1.5"><path id="bg_pattern" d="M931.583 785.384c8.874 19.781 8.74 41.374 9.903 63.248 1.179 22.179 7.086 45.509-3.091 64.933-10.488 20.02-32.131 28.653-51.38 39.04-21.875 11.803-43.346 27.79-67.767 25.25-26.503-2.757-56.149-14.401-68.483-39.424-12.175-24.702 3.495-53.783 9.116-81.021 4.059-19.666 10.344-37.453 19.031-55.356 9.896-20.396 17.214-42.861 34.977-55.952 20.93-15.425 47.197-30.631 71.5-22.519 24.241 8.09 35.277 37.466 46.194 61.801z"/><path id="bg_pattern_2" d="M914.579 787.035c6.259 13.953 6.165 29.184 6.985 44.613.831 15.645 4.998 32.101-2.18 45.802-7.398 14.121-22.664 20.211-36.242 27.537-15.43 8.326-30.574 19.602-47.8 17.81-18.695-1.944-39.606-10.157-48.305-27.808-8.589-17.424 2.464-37.937 6.429-57.149 2.863-13.872 7.297-26.418 13.424-39.047 6.98-14.386 12.143-30.232 24.672-39.466 14.763-10.88 33.291-21.606 50.433-15.884 17.099 5.707 24.884 26.427 32.584 43.592z"/><path id="bg_pattern_3" d="M890.107 807.748c3.782 8.431 3.725 17.635 4.221 26.958.502 9.453 3.02 19.397-1.317 27.676-4.471 8.533-13.696 12.213-21.9 16.64-9.324 5.031-18.475 11.845-28.884 10.762-11.296-1.175-23.932-6.138-29.189-16.803-5.19-10.529 1.489-22.924 3.885-34.534 1.73-8.382 4.409-15.963 8.112-23.594 4.218-8.693 7.337-18.268 14.908-23.848 8.921-6.574 20.116-13.056 30.475-9.598 10.332 3.448 15.036 15.969 19.689 26.341z"/><path id="bg_pattern_4" d="M629.62 353.596c41.058.9 58.961 57.091 92.433 82.324 31.286 23.586 73.676 28.537 97.247 60.667 26.393 35.977 50.401 82.618 40.391 126.948-9.99 44.247-60.935 60.183-90.164 93.487-27.83 31.71-40.682 78.29-77.348 97.383-39.099 20.358-85.979 22.6-127.718 9.396-41.656-13.178-71.863-48.486-101.73-81.983-31.111-34.891-67.503-69.129-75.203-116.449-7.768-47.735 5.163-100.073 33.834-137.781 26.684-35.094 76.993-32.393 113.337-55.776 34.965-22.497 54.033-79.112 94.921-78.216z"/><path id="bg_pattern_5" d="M628.147 408.643c31.638.693 45.434 43.957 71.227 63.385 24.109 18.16 56.774 21.972 74.937 46.71 20.339 27.701 38.839 63.612 31.126 97.744-7.699 34.068-46.957 46.337-69.48 71.98-21.445 24.415-31.349 60.279-59.604 74.979-30.129 15.675-66.253 17.401-98.418 7.235-32.099-10.147-55.376-37.332-78.391-63.123-23.974-26.864-52.017-53.225-57.951-89.66-5.985-36.753 3.979-77.05 26.073-106.083 20.562-27.021 59.329-24.941 87.335-42.945 26.944-17.321 41.638-60.912 73.146-60.222z"/><path id="bg_pattern_6" d="M626.808 462.278c22.468.492 32.265 31.158 50.582 44.928 17.121 12.872 40.317 15.574 53.216 33.109 14.444 19.635 27.581 45.089 22.104 69.282-5.467 24.148-33.346 32.844-49.341 51.02-15.229 17.306-22.262 42.727-42.327 53.146-21.396 11.111-47.05 12.335-69.891 5.128-22.795-7.191-39.325-26.461-55.669-44.741-17.025-19.042-36.94-37.727-41.154-63.553-4.25-26.05 2.826-54.614 18.515-75.193 14.603-19.152 42.133-17.678 62.021-30.44 19.134-12.277 29.569-43.175 51.944-42.686z"/><path id="bg_pattern_7" d="M625.463 515.914c13.183.289 18.931 18.357 29.678 26.471 10.045 7.584 23.656 9.176 31.224 19.507 8.474 11.569 16.183 26.566 12.969 40.82-3.208 14.228-19.565 19.352-28.95 30.061-8.936 10.196-13.062 25.174-24.835 31.313-12.554 6.546-27.606 7.267-41.007 3.021-13.375-4.237-23.074-15.59-32.664-26.361-9.988-11.219-21.673-22.228-24.146-37.444-2.494-15.349 1.658-32.178 10.864-44.303 8.567-11.285 24.721-10.416 36.39-17.935 11.226-7.234 17.349-25.438 30.477-25.15z"/><path id="bg_pattern_8" d="M1189.64 149.571c27.41-13.212 59.48-20.81 87.94-10.397 27.52 10.066 39.82 42.463 60.16 64.568 19.68 21.391 46.41 35.774 57.45 63.274 12.05 30.014 17.08 65.074 6.36 95.642-10.67 30.446-36.6 52.184-63.57 67.557-24.47 13.949-52.75 16.141-80.49 14.57-24.94-1.413-46.86-13.441-70.13-23.102-26.5-11.008-59.42-12.823-75.82-37.511-16.59-24.965-11.16-58.916-8.43-89.313 2.65-29.437 9.06-58.119 23.95-83.112 15.58-26.165 36.03-49.372 62.58-62.176z"/><path id="bg_pattern_9" d="M1201.25 182.22c21.41-10.322 46.46-16.258 68.7-8.123 21.5 7.865 31.11 33.176 47 50.446 15.38 16.713 36.26 27.95 44.89 49.434 9.41 23.45 13.34 50.841 4.97 74.724-8.34 23.786-28.6 40.77-49.67 52.78-19.12 10.898-41.21 12.611-62.88 11.383-19.49-1.104-36.62-10.501-54.79-18.049-20.71-8.6-46.43-10.018-59.24-29.306-12.96-19.505-8.72-46.03-6.58-69.778 2.07-22.999 7.07-45.407 18.7-64.934 12.18-20.442 28.15-38.573 48.9-48.577z"/><path id="bg_pattern_10" d="M1213.43 216.443c15.12-7.293 32.83-11.487 48.54-5.739 15.19 5.556 21.98 23.44 33.21 35.642 10.86 11.808 25.62 19.748 31.71 34.928 6.65 16.568 9.43 35.922 3.51 52.796-5.89 16.806-20.2 28.806-35.09 37.292-13.51 7.7-29.12 8.91-44.43 8.043-13.77-.78-25.87-7.42-38.71-12.753-14.63-6.076-32.81-7.078-41.86-20.706-9.15-13.781-6.16-32.523-4.65-49.302 1.46-16.25 5-32.082 13.22-45.879 8.6-14.444 19.89-27.254 34.55-34.322z"/><path id="bg_pattern_11" d="M1224.27 246.945c9.53-4.593 20.68-7.235 30.57-3.615 9.57 3.5 13.85 14.764 20.92 22.449 6.84 7.437 16.13 12.438 19.97 21.999 4.19 10.435 5.94 22.624 2.21 33.252-3.71 10.585-12.72 18.143-22.1 23.488-8.51 4.85-18.34 5.612-27.98 5.065-8.67-.491-16.3-4.673-24.38-8.032-9.22-3.827-20.67-4.458-26.37-13.041-5.76-8.68-3.88-20.484-2.93-31.052.93-10.234 3.15-20.206 8.33-28.896 5.42-9.097 12.53-17.165 21.76-21.617z"/><path id="bg_pattern_12" d="M194.765 784.183c-34.954 6.641-72.849-2.643-101.7931-24.461-28.4396-21.438-38.3288-59.449-53.6354-92.702-15.7402-34.196-47.88184-68.323-37.208-104.652 10.9418-37.242 60.3103-41.016 87.6668-67.09 22.6557-21.593 32.8807-54.271 58.3147-72.047 31.874-22.277 66.803-43.375 104.956-42.062 42.783 1.472 99.158 8.313 116.767 49.692 19.119 44.925-24.049 92.117-36.169 139.701-6.832 26.822-9.825 53.186-19.535 78.991-10.209 27.132-19.722 54.199-38.591 75.481-22.877 25.802-47.901 52.903-80.773 59.149z"/><path id="bg_pattern_13" d="M193.453 748.489c-28.746 5.46-59.912-2.173-83.715-20.11-23.3894-17.625-31.5225-48.877-44.1107-76.216-12.945-28.113-39.3787-56.171-30.6004-86.039 8.9987-30.618 49.5999-33.72 72.0981-55.157 18.633-17.753 27.041-44.619 47.959-59.234 26.213-18.314 54.939-35.66 86.317-34.581 35.186 1.21 81.549 6.835 96.031 40.854 15.723 36.935-19.779 75.734-29.746 114.855-5.619 22.052-8.08 43.727-16.066 64.942-8.396 22.307-16.22 44.56-31.738 62.057-18.814 21.213-39.394 43.494-66.429 48.629z"/><path id="bg_pattern_14" d="M191.862 705.885c-21.296 4.049-44.384-1.611-62.018-14.912-17.327-13.069-23.353-36.243-32.6782-56.515-9.5899-20.847-29.1725-41.653-22.6694-63.801 6.6664-22.704 36.7446-25.004 53.4116-40.9 13.804-13.164 20.033-33.086 35.529-43.923 19.42-13.581 40.7-26.444 63.945-25.643 26.067.897 60.414 5.068 71.142 30.294 11.648 27.388-14.652 56.159-22.036 85.168-4.163 16.352-5.986 32.424-11.902 48.156-6.22 16.541-12.016 33.042-23.512 46.017-13.938 15.73-29.184 32.252-49.212 36.059z"/><path id="bg_pattern_15" d="M190.492 668.87c-14.839 2.822-30.927-1.123-43.214-10.396-12.074-9.111-16.272-25.267-22.77-39.399-6.682-14.534-20.327-29.038-15.796-44.478 4.645-15.828 25.603-17.432 37.217-28.514 9.618-9.177 13.959-23.066 24.756-30.621 13.532-9.467 28.36-18.434 44.557-17.876 18.163.625 42.096 3.533 49.571 21.119 8.116 19.094-10.209 39.151-15.355 59.374-2.9 11.4-4.171 22.605-8.293 33.572-4.334 11.531-8.372 23.035-16.383 32.08-9.712 10.966-20.335 22.484-34.29 25.139z"/><path id="bg_pattern_16" d="M1142.02 467.976c34.59-.689 68.38 4.728 99.99 19.663 35.7 16.871 70.77 37.436 92.99 71.536 24.54 37.668 55.51 87.024 37.42 128.597-19.41 44.592-90.7 28.268-121.62 64.836-29.98 35.474-8.84 102.975-44.61 131.798-35.59 28.674-88.79 25.209-131.04 9.743-41.54-15.208-73.32-52.154-95.205-92.57-19.653-36.302-13.235-79.955-20.474-121.104-7.643-43.44-41.203-87.632-23.267-127.518 17.972-39.967 69.306-45.317 108.216-61.382 31.74-13.105 63.55-22.92 97.6-23.599z"/><path id="bg_pattern_17" d="M1144.5 514.544c27.25-.543 53.87 3.725 78.77 15.493 28.13 13.294 55.76 29.498 73.26 56.367 19.34 29.68 43.74 68.57 29.48 101.327-15.29 35.136-71.45 22.273-95.81 51.087-23.62 27.951-6.97 81.139-35.15 103.85-28.03 22.593-69.95 19.863-103.23 7.677-32.73-11.983-57.77-41.094-75.01-72.941-15.48-28.603-10.43-62.999-16.13-95.423-6.02-34.228-32.461-69.049-18.33-100.476 14.16-31.492 54.6-35.708 85.25-48.366 25.01-10.326 50.07-18.06 76.9-18.595z"/><path id="bg_pattern_18" d="M1147.53 568.168c18.8-.374 37.17 2.567 54.35 10.677 19.4 9.162 38.47 20.329 50.55 38.846 13.34 20.454 30.17 47.256 20.34 69.83-10.55 24.215-49.31 15.351-66.11 35.208-16.3 19.263-4.81 55.917-24.25 71.569-19.35 15.571-48.27 13.689-71.23 5.291-22.58-8.258-39.86-28.321-51.76-50.268-10.68-19.712-7.19-43.417-11.13-65.762-4.15-23.588-22.39-47.586-12.64-69.244 9.77-21.703 37.67-24.609 58.82-33.332 17.25-7.116 34.54-12.447 53.06-12.815z"/><path id="bg_pattern_19" d="M1150.11 614.03c11.59-.23 22.91 1.577 33.5 6.559 11.97 5.627 23.72 12.486 31.16 23.86 8.23 12.564 18.61 29.027 12.54 42.893-6.5 14.874-30.39 9.429-40.75 21.626-10.05 11.832-2.96 34.347-14.95 43.961-11.92 9.564-29.75 8.409-43.91 3.25-13.92-5.072-24.57-17.396-31.9-30.877-6.59-12.108-4.43-26.668-6.86-40.393-2.56-14.49-13.81-29.23-7.8-42.534 6.03-13.33 23.23-15.115 36.26-20.473 10.64-4.371 21.3-7.645 32.71-7.872z"/><path id="bg_pattern_20" d="M388.48 19.3607c34.235 2.5708 67.654-2.9405 100.658 7.0434 43.166 13.058 95.649 19.1316 119.402 59.5257 23.736 40.3652 16.096 96.3642-2.191 139.8022-16.694 39.654-63.687 51.037-91.549 82.862-26.46 30.222-28.939 89.694-66.986 98.22-38.869 8.71-64.735-45.633-101.954-60.364-33.257-13.163-73.916 1.733-102.518-20.563-30.636-23.88-61.248-62.865-55.686-102.754 5.817-41.72 65.912-49.601 82.287-88.033 16.492-38.7062-21.182-95.7645 8.282-124.5335 27.675-27.0213 72.732 5.9766 110.255 8.7942z"/><path id="bg_pattern_21" d="M392.677 64.7196c25.788 1.94 50.962-2.2191 75.823 5.3153 32.517 9.8542 72.051 14.4376 89.944 44.9211 17.88 30.461 12.125 72.722-1.651 105.502-12.575 29.925-47.974 38.515-68.962 62.531-19.932 22.808-21.799 67.688-50.459 74.122-29.279 6.573-48.764-34.437-76.8-45.553-25.052-9.934-55.68 1.307-77.225-15.518-23.078-18.021-46.137-47.442-41.948-77.543 4.382-31.484 49.651-37.432 61.986-66.435 12.423-29.209-15.956-72.2684 6.239-93.979 20.847-20.3916 54.787 4.5102 83.053 6.6366z"/><path id="bg_pattern_22" d="M397.524 118.374c15.87 1.192 31.361-1.365 46.66 3.267 20.011 6.057 44.339 8.874 55.35 27.612 11.003 18.724 7.462 44.7-1.016 64.85-7.738 18.394-29.522 23.674-42.438 38.436-12.265 14.02-13.414 41.607-31.052 45.562-18.018 4.04-30.008-21.168-47.261-28.001-15.417-6.106-34.264.803-47.523-9.539-14.202-11.077-28.392-29.161-25.814-47.664 2.697-19.352 30.554-23.008 38.145-40.836 7.645-17.954-9.819-44.422 3.839-57.767 12.829-12.534 33.716 2.772 51.11 4.08z"/><path id="bg_pattern_23" d="M878.15 16.9456c45.319.8885 59.186 69.3183 84.768 109.0004 16.284 25.26 21.308 55.342 37.502 80.666 20.92 32.71 72.08 49.157 70.79 88.658-1.25 38.178-52.25 49.419-76.223 77.93-23.491 27.935-28.893 77.425-62.885 87.496-34.056 10.091-64.172-25.676-96.777-40.188-28.384-12.634-59.068-18.311-82.426-39.576-25.844-23.529-43.373-54.19-56.952-87.317-17.462-42.6-55.24-92.004-32.941-131.984 23.127-41.463 89.976-13.249 128.338-39.048 37.963-25.5306 41.862-106.5185 86.806-105.6374z"/><path id="bg_pattern_24" d="M873.664 87.519c30.952.6067 40.423 47.327 57.895 74.42 11.122 17.247 14.553 37.785 25.615 55.075 14.288 22.333 49.226 33.562 48.346 60.531-.85 26.066-35.684 33.741-52.058 53.206-16.044 19.073-19.734 52.862-42.95 59.739-23.26 6.889-43.829-17.531-66.097-27.439-19.387-8.626-40.344-12.502-56.297-27.02-17.651-16.065-29.623-36.999-38.897-59.616-11.927-29.085-37.729-62.816-22.499-90.112 15.796-28.309 61.453-9.046 87.654-26.66 25.928-17.431 28.591-72.7256 59.288-72.124z"/><path id="bg_pattern_25" d="M868.791 162.327c15.694.308 20.496 24.048 29.355 37.815 5.64 8.763 7.379 19.199 12.988 27.984 7.245 11.348 24.96 17.054 24.514 30.757-.432 13.245-18.094 17.145-26.396 27.035-8.135 9.692-10.006 26.861-21.777 30.355-11.794 3.501-22.223-8.908-33.514-13.942-9.83-4.383-20.456-6.353-28.545-13.73-8.95-8.163-15.02-18.8-19.723-30.292-6.047-14.779-19.13-31.918-11.407-45.788 8.009-14.384 31.158-4.596 44.444-13.546 13.146-8.857 14.496-36.954 30.061-36.648z"/></g></svg>