<svg width="30" height="29" viewBox="0 0 30 29" fill="none" xmlns="http://www.w3.org/2000/svg">
<path id="icon_twitter" d="M26.7857 0.0625H3.21429C1.43973 0.0625 0 1.44824 0 3.15625V25.8438C0 27.5518 1.43973 28.9375 3.21429 28.9375H26.7857C28.5603 28.9375 30 27.5518 30 25.8438V3.15625C30 1.44824 28.5603 0.0625 26.7857 0.0625ZM23.5112 10.2977C23.5246 10.4781 23.5246 10.665 23.5246 10.8455C23.5246 16.4336 19.1049 22.8725 11.029 22.8725C8.53795 22.8725 6.22768 22.1764 4.28571 20.9775C4.64062 21.0162 4.98214 21.0291 5.34375 21.0291C7.39955 21.0291 9.28795 20.3588 10.7946 19.2244C8.86607 19.1857 7.24554 17.9676 6.68973 16.2918C7.36607 16.3885 7.97545 16.3885 8.67188 16.2145C6.66295 15.8213 5.15625 14.1197 5.15625 12.0637V12.0121C5.73884 12.3279 6.42187 12.5213 7.13839 12.5471C6.536 12.1614 6.04218 11.6382 5.70098 11.0241C5.35979 10.4101 5.18185 9.72428 5.18304 9.02793C5.18304 8.2416 5.39732 7.51973 5.77902 6.89453C7.94196 9.45977 11.1897 11.1355 14.8326 11.316C14.2098 8.44785 16.4397 6.12109 19.1183 6.12109C20.3839 6.12109 21.5223 6.63027 22.3259 7.45527C23.317 7.2748 24.2679 6.92031 25.1116 6.43691C24.7835 7.4166 24.0938 8.2416 23.183 8.76367C24.067 8.67344 24.9241 8.43496 25.7143 8.10625C25.1183 8.95059 24.3683 9.69824 23.5112 10.2977Z" fill="#FD8061"/>
</svg>
