<svg width="30" height="25" viewBox="0 0 30 25" fill="none" xmlns="http://www.w3.org/2000/svg">
<path id="icon_mail" d="M29.4316 8.29766C29.6602 8.09785 30 8.28477 30 8.60059V21.7812C30 23.4893 28.7402 24.875 27.1875 24.875H2.8125C1.25977 24.875 0 23.4893 0 21.7812V8.60703C0 8.28477 0.333984 8.1043 0.568359 8.3041C1.88086 9.42559 3.62109 10.85 9.59766 15.626C10.834 16.6186 12.9199 18.7068 15 18.6939C17.0918 18.7133 19.2188 16.5799 20.4082 15.626C26.3848 10.85 28.1191 9.41914 29.4316 8.29766ZM15 16.625C16.3594 16.6508 18.3164 14.743 19.3008 13.9566C27.0762 7.7498 27.668 7.2084 29.4609 5.66152C29.8008 5.37148 30 4.92031 30 4.44336V3.21875C30 1.51074 28.7402 0.125 27.1875 0.125H2.8125C1.25977 0.125 0 1.51074 0 3.21875V4.44336C0 4.92031 0.199219 5.36504 0.539062 5.66152C2.33203 7.20195 2.92383 7.7498 10.6992 13.9566C11.6836 14.743 13.6406 16.6508 15 16.625Z" fill="#FD8061"/>
</svg>
